<?xml version="1.0" encoding="utf-8"?>
<!-- Generator: Adobe Illustrator 27.6.1, SVG Export Plug-In . SVG Version: 6.00 Build 0)  -->
<svg version="1.1" id="Camada_1" xmlns="http://www.w3.org/2000/svg" xmlns:xlink="http://www.w3.org/1999/xlink" x="0px" y="0px"
	 viewBox="0 0 236.2 81.9" style="enable-background:new 0 0 236.2 81.9;" xml:space="preserve">
<style type="text/css">
	.st0{fill:#FFED00;}
</style>
<g id="Camada_2_00000139264960200972111740000016820914130636617616_">
	<g>
		<path class="st0" d="M194.4,25.9l-3.6,13.5h15.5c1.3,0,2.1-0.2,3.1-1c0.9-0.7,1.4-1.3,1.7-2.5l1.1-4.4c0.4-1.3-0.1-2.4-1.1-3.6
			c-1.1-1.5-2.5-2.1-4.1-2.1H194.4L194.4,25.9z M175.6,16.6h52.3c2.3,0,3.9,1,5.7,2.9c3,3,2.9,6.6,2,10.1l-3,11.8
			c-0.7,2.7-1,4.4-2.8,6.3c-2.3,2.5-4.7,3.3-8.4,3.3h-33.7c-0.9,5-2.5,7.7-6.2,10.7c-3.3,2.6-5.9,3.8-10.5,3.8h-7.7L175.6,16.6
			L175.6,16.6z"/>
		<path class="st0" d="M123.2,16.6h19.9l-8.5,34.1c-1.3,5.1-3.3,8-7.1,11.4c-2.4,2.1-9.8,4.5-16.7,3L92.9,39.5l-2.8,11.2
			c-1.2,5-3.3,8-7.2,11.4c-2.3,2.1-9.8,4.5-16.7,3l12.5-48.4h19.9L117,40.3l0,0L123.2,16.6L123.2,16.6z"/>
		<path class="st0" d="M137.1,65l12.3-48.4h19.9l-8.5,34c-1.3,5.1-3.3,8-7.1,11.4C151.3,64.1,144,66.5,137.1,65L137.1,65z"/>
		<path class="st0" d="M29.4,16.5H8.5L0.8,46c-1.2,4.5-0.5,8.4,3.9,12.7c4.8,4.7,13.3,6.6,21.6,6.6h15.1c7.6,0,12.3-1.4,17.2-6.2
			c3-3,4.3-5.3,5.4-9.5l8.5-33H51.1l-6.3,23.8c-1.6,7.5-2.9,9.2-12.8,9.2c-6.2,0-9.7-5.1-8.7-9.2L29.4,16.5L29.4,16.5z"/>
	</g>
</g>
</svg>
